<?xml version="1.0" encoding="UTF-8" standalone="no"?>
<svg
   xmlns:dc="http://purl.org/dc/elements/1.1/"
   xmlns:cc="http://creativecommons.org/ns#"
   xmlns:rdf="http://www.w3.org/1999/02/22-rdf-syntax-ns#"
   xmlns:svg="http://www.w3.org/2000/svg"
   xmlns="http://www.w3.org/2000/svg"
   id="svg6481"
   version="1.1"
   viewBox="0 0 36.170055 36.049016"
   height="36.049015mm"
   width="36.170055mm">
  <defs
     id="defs6475" />
  <metadata
     id="metadata6478">
    <rdf:RDF>
      <cc:Work
         rdf:about="">
        <dc:format>image/svg+xml</dc:format>
        <dc:type
           rdf:resource="http://purl.org/dc/dcmitype/StillImage" />
        <dc:title></dc:title>
      </cc:Work>
    </rdf:RDF>
  </metadata>
  <g
     transform="translate(-53.065205,-58.252655)"
     id="layer1">
    <g
       id="g6360"
       transform="matrix(0.35277777,0,0,-0.35277777,45.078555,107.15583)">
      <g
         id="g296"
         transform="translate(49.672171,118.59803)">
        <path
           d="m 0,0 c 1.501,0.258 2.503,-0.93 2.503,-1.632 0,-1.032 -2.193,-0.989 -4.9,-0.989 -2.707,0 -4.901,-0.043 -4.901,0.989 0,0.748 0.973,1.89 2.815,1.695 0.64,-0.068 1.342,1.074 2.086,1.129 C -0.747,1.317 -0.715,-0.121 0,0"
           style="fill:#30bec7;fill-opacity:1;fill-rule:nonzero;stroke:none"
           id="path298" />
      </g>
      <g
         id="g300"
         transform="translate(98.227871,101.06293)">
        <path
           d="m 0,0 c 1.501,0.257 2.503,-0.931 2.503,-1.632 0,-1.034 -2.193,-0.99 -4.9,-0.99 -2.706,0 -4.9,-0.044 -4.9,0.99 0,0.747 0.973,1.889 2.815,1.694 0.639,-0.068 1.341,1.074 2.085,1.13 C -0.746,1.316 -0.714,-0.122 0,0"
           style="fill:#30bec7;fill-opacity:1;fill-rule:nonzero;stroke:none"
           id="path302" />
      </g>
      <g
         id="g304"
         transform="translate(52.270371,107.61953)">
        <path
           d="m 0,0 c 2.695,0.461 4.495,-1.673 4.495,-2.931 0,-1.857 -3.94,-1.777 -8.8,-1.777 -4.859,0 -8.799,-0.08 -8.799,1.777 0,1.344 1.747,3.392 5.054,3.041 1.149,-0.123 2.41,1.93 3.745,2.03 C -1.342,2.364 -1.284,-0.22 0,0"
           style="fill:#30bec7;fill-opacity:1;fill-rule:nonzero;stroke:none"
           id="path306" />
      </g>
      <g
         id="g308"
         transform="translate(103.57307,117.85683)">
        <path
           d="m 0,0 c 2.447,0.418 4.081,-1.518 4.081,-2.661 0,-1.684 -3.577,-1.612 -7.989,-1.612 -4.412,0 -7.989,-0.072 -7.989,1.612 0,1.22 1.586,3.079 4.588,2.762 1.044,-0.111 2.189,1.752 3.401,1.843 C -1.217,2.146 -1.166,-0.199 0,0"
           style="fill:#30bec7;fill-opacity:1;fill-rule:nonzero;stroke:none"
           id="path310" />
      </g>
      <g
         id="g312"
         transform="translate(73.904171,135.78853)">
        <path
           d="M 0,0 C -17.208,-11.837 -8.127,-49.943 -8.127,-49.943 H 0 8.126 c 0,0 9.082,38.106 -8.126,49.943"
           style="fill:#30bec7;fill-opacity:1;fill-rule:nonzero;stroke:none"
           id="path314" />
      </g>
      <g
         id="g316"
         transform="translate(63.373371,97.82563)">
        <path
           d="M 0,0 C 0,0 -13.133,-8.083 -3.828,-29.591 L 1.673,-11.98 Z"
           style="fill:#242e3c;fill-opacity:1;fill-rule:nonzero;stroke:none"
           id="path318" />
      </g>
      <g
         id="g320"
         transform="translate(84.457371,97.82563)">
        <path
           d="M 0,0 C 0,0 13.134,-8.083 3.827,-29.591 L -1.672,-11.98 Z"
           style="fill:#242e3c;fill-opacity:1;fill-rule:nonzero;stroke:none"
           id="path322" />
      </g>
      <g
         id="g324"
         transform="translate(80.433471,112.62153)">
        <path
           d="m 0,0 c 0,-3.468 -2.923,-6.278 -6.529,-6.278 -3.606,0 -6.53,2.81 -6.53,6.278 0,3.468 2.924,6.279 6.53,6.279 C -2.923,6.279 0,3.468 0,0"
           style="fill:#242e3c;fill-opacity:1;fill-rule:nonzero;stroke:none"
           id="path326" />
      </g>
      <g
         id="g328"
         transform="translate(111.39197,58.49063)">
        <path
           d="m 0,0 c -0.522,1.2 -1.248,2.178 -2.461,1.94 -1.334,-0.259 -2.596,-5.564 -3.745,-5.25 -1.68,0.461 -2.958,-0.68 -3.807,-2.37 -0.601,2.062 -2.499,3.568 -4.751,3.568 -2.735,0 -4.952,-2.219 -4.952,-4.956 0,-0.313 0.033,-0.617 0.088,-0.913 -0.719,-0.24 -1.277,-0.642 -1.277,-0.642 -5.179,2.923 -6.642,-2.273 -6.642,-2.273 -2.477,5.088 -6.122,0 -6.122,0 -0.273,0.367 -0.61,0.671 -0.834,1.05 -4.336,7.463 0.993,37.2 0.993,37.2 h -7.969 c 0,0 5.358,-29.893 0.959,-37.257 -0.192,-0.315 -0.504,-0.632 -0.739,-0.935 -0.018,-0.016 -0.035,-0.035 -0.053,-0.052 -0.114,0.158 -3.679,5 -6.117,-0.006 0,0 -1.463,5.196 -6.641,2.273 0,0 -1.233,0.888 -2.395,0.812 0.036,0.244 0.062,0.49 0.062,0.743 0,2.737 -2.217,4.956 -4.952,4.956 -1.797,0 -3.366,-0.96 -4.233,-2.396 -0.697,0.899 -1.554,1.344 -2.528,0.914 -1.283,-0.566 -1.342,6.115 -4.304,5.534 -0.653,-0.127 -1.288,-1.458 -1.9,-2.75 -6.41,7.736 -10.247,17.527 -10.247,28.164 0,24.964 21.12,45.275 47.079,45.275 25.96,0 47.08,-20.311 47.08,-45.275 C 9.592,17.085 6.015,7.604 0,0 m -11.235,-11.765 c 0.244,0.153 0.487,0.305 0.727,0.461 4.192,2.715 7.921,6.042 11.047,9.85 6.512,7.932 10.403,17.94 10.403,28.808 0,25.681 -21.725,46.574 -48.43,46.574 -26.704,0 -48.43,-20.893 -48.43,-46.574 0,-11.169 4.112,-21.434 10.955,-29.466 3.009,-3.534 6.546,-6.635 10.495,-9.192 0.271,-0.175 0.543,-0.347 0.817,-0.517 2.481,-1.538 5.117,-2.862 7.879,-3.948 5.644,-2.221 11.818,-3.45 18.284,-3.45 6.467,0 12.64,1.229 18.285,3.45 2.796,1.101 5.461,2.444 7.968,4.004"
           style="fill:#30bec7;fill-opacity:1;fill-rule:nonzero;stroke:none"
           id="path330" />
      </g>
      <path
         d="m 74.637971,70.76013 h -1.468 v 29.592 h 1.468 z"
         style="fill:#242e3c;fill-opacity:1;fill-rule:nonzero;stroke:none"
         id="path332" />
      <g
         id="g334"
         transform="translate(73.904171,135.51603)">
        <path
           d="m 0,0 c -4.276,-2.941 -6.909,-7.523 -8.456,-12.735 2.312,-0.993 5.253,-1.588 8.456,-1.588 3.203,0 6.144,0.595 8.456,1.588 C 6.91,-7.523 4.277,-2.941 0,0"
           style="fill:#f05727;fill-opacity:1;fill-rule:nonzero;stroke:none"
           id="path336" />
      </g>
    </g>
  </g>
</svg>
